<?xml version="1.0" encoding="utf-8"?>
<!-- Generator: Adobe Illustrator 27.6.1, SVG Export Plug-In . SVG Version: 6.00 Build 0)  -->
<svg version="1.1" id="レイヤー_1" xmlns="http://www.w3.org/2000/svg" xmlns:xlink="http://www.w3.org/1999/xlink" x="0px"
	 y="0px" viewBox="0 0 459.9 308.6" style="enable-background:new 0 0 459.9 308.6;" xml:space="preserve">
<style type="text/css">
	.st0{fill-rule:evenodd;clip-rule:evenodd;fill:#1E0F00;}
	.st1{fill-rule:evenodd;clip-rule:evenodd;fill:#D3D3D3;}
	.st2{fill-rule:evenodd;clip-rule:evenodd;fill:#E2E4E8;}
	.st3{fill-rule:evenodd;clip-rule:evenodd;fill:#EEEEEF;}
	.st4{fill-rule:evenodd;clip-rule:evenodd;fill:#FFBE55;}
	.st5{fill-rule:evenodd;clip-rule:evenodd;fill:#535671;}
	.st6{fill-rule:evenodd;clip-rule:evenodd;fill:#66646D;}
	.st7{fill-rule:evenodd;clip-rule:evenodd;fill:#0E538B;}
	.st8{fill-rule:evenodd;clip-rule:evenodd;fill:#FFFFFF;}
	.st9{fill-rule:evenodd;clip-rule:evenodd;fill:#E7E5E4;}
	.st10{fill-rule:evenodd;clip-rule:evenodd;fill:#E3E3E3;}
	.st11{fill-rule:evenodd;clip-rule:evenodd;fill:#2993F2;}
	.st12{fill-rule:evenodd;clip-rule:evenodd;fill:#CCE9FF;}
</style>
<g id="BACKGROUND">
</g>
<g id="OBJECTS">
	<g>
		<path class="st0" d="M414.8,279.5c0,10.9-8.8,19.7-19.7,19.7H64.7c-10.9,0-19.7-8.8-19.7-19.7V60.4c0-10.9,8.8-19.7,19.7-19.7
			h330.4c10.9,0,19.7,8.8,19.7,19.7L414.8,279.5L414.8,279.5z"/>
		<path class="st1" d="M0,278v4.8c0,10.4,11,18.9,24.5,18.9h410.9c13.5,0,24.5-8.5,24.5-18.9V278H0z"/>
		<polygon class="st2" points="59.5,57.2 59.5,257.8 398.6,257.8 398.6,73.9 59.5,73.9 		"/>
		<rect x="299.4" y="92.2" class="st3" width="91.7" height="122.4"/>
		<rect x="59.5" y="57.2" class="st4" width="339.1" height="16.7"/>
		<rect x="80" y="57.2" class="st3" width="208.4" height="190.2"/>
		<path class="st5" d="M435.4,308.6L435.4,308.6L435.4,308.6L435.4,308.6L435.4,308.6z M24.3,308.6L24.3,308.6L24.3,308.6
			L24.3,308.6L24.3,308.6L24.3,308.6z M435.5,308.6L435.5,308.6L435.5,308.6L435.5,308.6L435.5,308.6z M435.7,308.6L435.7,308.6
			C435.6,308.6,435.6,308.6,435.7,308.6C435.6,308.6,435.6,308.6,435.7,308.6L435.7,308.6z M435.8,308.6L435.8,308.6
			C435.7,308.6,435.7,308.6,435.8,308.6C435.7,308.6,435.7,308.6,435.8,308.6L435.8,308.6z M447,305.7L447,305.7
			c-3.4,1.8-7.2,2.9-11.2,2.9C439.8,308.6,443.7,307.5,447,305.7L447,305.7z M447.1,305.6L447.1,305.6
			C447.1,305.7,447.1,305.7,447.1,305.6C447.1,305.7,447.1,305.7,447.1,305.6L447.1,305.6z M447.2,305.6L447.2,305.6
			c0,0-0.1,0-0.1,0.1C447.1,305.6,447.2,305.6,447.2,305.6L447.2,305.6z M447.3,305.5L447.3,305.5
			C447.3,305.6,447.2,305.6,447.3,305.5C447.2,305.6,447.3,305.6,447.3,305.5L447.3,305.5z M447.4,305.5L447.4,305.5
			C447.3,305.5,447.3,305.5,447.4,305.5C447.3,305.5,447.3,305.5,447.4,305.5L447.4,305.5z M447.5,305.4L447.5,305.4
			C447.4,305.4,447.4,305.5,447.5,305.4C447.4,305.5,447.4,305.4,447.5,305.4L447.5,305.4z M447.5,305.4L447.5,305.4L447.5,305.4
			L447.5,305.4z"/>
		<path class="st6" d="M457.5,290.8H2.3c3.9,6.4,12.3,10.8,22,10.8l0,0h0.1h410.9l0,0h0.1l0,0c0,0,0,0,0.1,0h0.1l0,0c0,0,0,0,0.1,0
			l0,0c4.1-0.1,7.9-0.9,11.2-2.3l0,0c0,0,0,0,0.1,0l0,0h0.1l0,0l0,0l0,0l0,0c0,0,0,0,0.1,0l0,0c0,0,0,0,0.1,0l0,0
			C451.9,297.2,455.3,294.3,457.5,290.8z"/>
		<g>
			<rect x="294.2" y="88.7" class="st7" width="92.2" height="120.9"/>
			<g>
				<rect x="303.4" y="101.3" class="st8" width="23.1" height="1.4"/>
				<rect x="303.4" y="104.8" class="st8" width="12.2" height="1.4"/>
				<rect x="303.4" y="108.4" class="st8" width="19.7" height="1.4"/>
				<rect x="312.5" y="115.5" class="st8" width="11.5" height="1.4"/>
				<rect x="320.5" y="119.1" class="st8" width="11.2" height="1.4"/>
				<rect x="319.6" y="104.8" class="st8" width="20.8" height="1.4"/>
				<rect x="343.4" y="104.8" class="st8" width="9.9" height="1.4"/>
				<rect x="357.1" y="104.8" class="st8" width="13.4" height="1.4"/>
				<rect x="326.3" y="108.4" class="st8" width="11.7" height="1.4"/>
				<polygon class="st8" points="324,112 321.8,112 312.5,112 312.5,113.4 321.8,113.4 324,113.4 334.2,113.4 334.2,112 				"/>
				<rect x="327.5" y="115.5" class="st8" width="11.5" height="1.4"/>
				<rect x="337.4" y="112" class="st8" width="12.8" height="1.4"/>
				<rect x="352.7" y="112" class="st8" width="6.7" height="1.4"/>
				<rect x="362.2" y="112" class="st8" width="8.3" height="1.4"/>
				<rect x="341.5" y="115.5" class="st8" width="14.5" height="1.4"/>
				<rect x="358.2" y="115.5" class="st8" width="4.3" height="1.4"/>
				<rect x="334.8" y="119.1" class="st8" width="8.3" height="1.4"/>
				<rect x="312.5" y="126.3" class="st8" width="11.5" height="1.4"/>
				<rect x="312.5" y="129.8" class="st8" width="11.5" height="1.4"/>
				<rect x="327.5" y="129.8" class="st8" width="10.3" height="1.4"/>
				<polygon class="st8" points="339,126.3 337.4,126.3 327.5,126.3 327.5,127.7 337.4,127.7 339,127.7 347.2,127.7 347.2,126.3 
									"/>
				<rect x="349.1" y="126.3" class="st8" width="5.2" height="1.4"/>
				<rect x="356.5" y="126.3" class="st8" width="6.4" height="1.4"/>
				<rect x="347.9" y="129.8" class="st8" width="11.5" height="1.4"/>
				<rect x="312.5" y="133.4" class="st8" width="11.5" height="1.4"/>
				<rect x="312.5" y="137" class="st8" width="11.5" height="1.4"/>
				<rect x="327.5" y="133.4" class="st8" width="6.7" height="1.4"/>
				<rect x="327.5" y="137" class="st8" width="21" height="1.4"/>
				<polygon class="st8" points="350.1,133.4 344.9,133.4 337.4,133.4 337.4,134.8 344.9,134.8 350.1,134.8 359.4,134.8 
					359.4,133.4 				"/>
				<rect x="362.2" y="133.4" class="st8" width="8.3" height="1.4"/>
				<rect x="351.1" y="137" class="st8" width="11.8" height="1.4"/>
				<rect x="340.1" y="129.8" class="st8" width="4.9" height="1.4"/>
				<rect x="303.4" y="144.1" class="st8" width="12.2" height="1.4"/>
				<rect x="303.4" y="147.7" class="st8" width="19.7" height="1.4"/>
				<rect x="312.5" y="151.3" class="st8" width="11.5" height="1.4"/>
				<rect x="312.5" y="154.8" class="st8" width="11.5" height="1.5"/>
				<polygon class="st8" points="336.3,144.1 334.1,144.1 319.6,144.1 319.6,145.6 334.1,145.6 336.3,145.6 340,145.6 340,144.1 
									"/>
				<rect x="343.7" y="144.1" class="st8" width="18.5" height="1.4"/>
				<rect x="326.3" y="147.7" class="st8" width="11.7" height="1.4"/>
				<rect x="327.5" y="154.8" class="st8" width="8.9" height="1.5"/>
				<polygon class="st8" points="345.2,151.3 343.7,151.3 327.5,151.3 327.5,152.7 343.7,152.7 345.2,152.7 353.5,152.7 
					353.5,151.3 				"/>
				<rect x="339" y="154.8" class="st8" width="17" height="1.5"/>
				<rect x="358.2" y="154.8" class="st8" width="4.3" height="1.5"/>
				<rect x="334.8" y="158.4" class="st8" width="8.3" height="1.4"/>
				<polygon class="st8" points="331.6,158.4 328.6,158.4 320.5,158.4 320.5,159.8 328.6,159.8 331.6,159.8 360.4,159.8 
					360.4,158.4 				"/>
				<rect x="362.7" y="158.4" class="st8" width="4.6" height="1.4"/>
				<rect x="312.5" y="165.5" class="st8" width="11.5" height="1.4"/>
				<rect x="312.5" y="169.1" class="st8" width="11.5" height="1.4"/>
				<rect x="327.5" y="165.5" class="st8" width="18.9" height="1.4"/>
				<rect x="327.5" y="169.1" class="st8" width="10.3" height="1.4"/>
				<rect x="349.1" y="165.5" class="st8" width="5.2" height="1.4"/>
				<rect x="356.5" y="165.5" class="st8" width="6.4" height="1.4"/>
				<rect x="347.9" y="169.1" class="st8" width="11.5" height="1.4"/>
				<rect x="340.1" y="169.1" class="st8" width="4.9" height="1.4"/>
				<rect x="303.4" y="175" class="st8" width="12.2" height="1.4"/>
				<rect x="303.4" y="178.5" class="st8" width="19.7" height="1.4"/>
				<rect x="312.5" y="182.1" class="st8" width="11.5" height="1.4"/>
				<rect x="312.5" y="185.7" class="st8" width="11.5" height="1.4"/>
				<rect x="320.5" y="189.2" class="st8" width="11.2" height="1.4"/>
				<rect x="319.6" y="175" class="st8" width="11.5" height="1.4"/>
				<polygon class="st8" points="346.2,175 343.7,175 334.1,175 334.1,176.4 343.7,176.4 346.2,176.4 370.5,176.4 370.5,175 				"/>
				<rect x="326.3" y="178.5" class="st8" width="11.7" height="1.4"/>
				<rect x="327.5" y="185.7" class="st8" width="8.9" height="1.4"/>
				<polygon class="st8" points="344.9,182.1 343.7,182.1 327.5,182.1 327.5,183.5 343.7,183.5 344.9,183.5 353.5,183.5 
					353.5,182.1 				"/>
				<rect x="356" y="182.1" class="st8" width="5.9" height="1.4"/>
				<rect x="364.8" y="182.1" class="st8" width="5.7" height="1.4"/>
				<rect x="339" y="185.7" class="st8" width="17" height="1.4"/>
				<rect x="358.2" y="185.7" class="st8" width="4.3" height="1.4"/>
				<rect x="334.8" y="189.2" class="st8" width="8.3" height="1.4"/>
				<rect x="312.5" y="200" class="st8" width="11.5" height="1.4"/>
				<polygon class="st8" points="324,196.4 319.8,196.4 312.5,196.4 312.5,197.8 319.8,197.8 324,197.8 346.4,197.8 346.4,196.4 
									"/>
				<rect x="327.5" y="200" class="st8" width="10.3" height="1.4"/>
				<rect x="349.1" y="196.4" class="st8" width="5.2" height="1.4"/>
				<rect x="356.5" y="196.4" class="st8" width="6.4" height="1.4"/>
				<rect x="347.9" y="200" class="st8" width="11.5" height="1.4"/>
				<rect x="340.1" y="200" class="st8" width="4.9" height="1.4"/>
			</g>
			<rect x="294.2" y="88.7" class="st4" width="92.2" height="7.2"/>
			<path class="st9" d="M381.9,91.8c0,1-0.8,1.9-1.9,1.9c-1,0-1.9-0.8-1.9-1.9c0-1,0.8-1.9,1.9-1.9S381.9,90.8,381.9,91.8z"/>
			<path class="st9" d="M375.7,91.8c0,1-0.8,1.9-1.9,1.9c-1,0-1.9-0.8-1.9-1.9c0-1,0.8-1.9,1.9-1.9
				C374.8,89.9,375.7,90.8,375.7,91.8z"/>
		</g>
		<g>
			<rect x="73.8" class="st8" width="210.5" height="242.7"/>
			<rect x="73.8" class="st4" width="210.5" height="11.7"/>
			<path class="st9" d="M278.4,5.5c0,1.5-1.3,2.8-2.8,2.8s-2.8-1.3-2.8-2.8s1.3-2.8,2.8-2.8C277.2,2.7,278.4,4,278.4,5.5z"/>
			<path class="st9" d="M269.1,5.5c0,1.5-1.3,2.8-2.8,2.8c-1.6,0-2.8-1.3-2.8-2.8s1.3-2.8,2.8-2.8C267.8,2.7,269.1,4,269.1,5.5z"/>
			<rect x="73.8" y="32.8" class="st4" width="210.5" height="13.7"/>
			<rect x="208" y="36.6" class="st8" width="64.5" height="6"/>
			<g>
				<rect x="88.1" y="37.6" class="st10" width="18.9" height="4"/>
				<rect x="108.5" y="37.6" class="st10" width="18.9" height="4"/>
				<rect x="129" y="37.6" class="st10" width="18.9" height="4"/>
				<rect x="149.4" y="37.6" class="st10" width="18.9" height="4"/>
			</g>
			<rect x="115.5" y="66.8" class="st11" width="38.3" height="31.1"/>
			<path class="st8" d="M276.7,37.3c-0.8,0-1.5,0.7-1.5,1.5s0.7,1.5,1.5,1.5s1.5-0.7,1.5-1.5S277.5,37.3,276.7,37.3L276.7,37.3z
				 M275.3,37.5L275.3,37.5c0.8-0.8,2.1-0.8,2.8,0c0.8,0.8,0.8,2,0,2.8s-2.1,0.8-2.8,0C274.5,39.5,274.5,38.2,275.3,37.5z"/>
			<path class="st8" d="M278.5,41l-0.4-0.4c0.1-0.1,0.2-0.1,0.2-0.2c0.1-0.1,0.2-0.2,0.2-0.3l0.5,0.4L278.5,41z"/>
			<path class="st8" d="M280.8,42.3c0.2,0.2,0.2,0.4,0,0.6c-0.2,0.2-0.4,0.2-0.6,0l-1.8-1.7l0.6-0.6L280.8,42.3z"/>
			<path class="st8" d="M276.6,40.1c0.1,0,0.3,0,0.4-0.1l0,0c0.1,0,0.1-0.1,0.1-0.2c0-0.1-0.1-0.1-0.2-0.1s-0.2,0.1-0.3,0.1
				c-0.3,0-0.5-0.2-0.6-0.4c0-0.1-0.1-0.1-0.2-0.1s-0.1,0.1-0.1,0.2C275.8,39.9,276.2,40.1,276.6,40.1L276.6,40.1z"/>
			<rect x="158.1" y="66.6" class="st4" width="38.3" height="31.1"/>
			<rect x="200.8" y="66.4" class="st12" width="38.3" height="31.1"/>
			<rect x="90.6" y="203.5" class="st1" width="54.9" height="2.7"/>
			<rect x="90.6" y="208.4" class="st1" width="54.9" height="2.7"/>
			<rect x="90.6" y="213.3" class="st1" width="54.9" height="2.7"/>
			<rect x="90.6" y="218.2" class="st1" width="54.9" height="2.7"/>
			<rect x="90.6" y="223.1" class="st1" width="54.9" height="2.7"/>
			<rect x="90.6" y="228" class="st1" width="54.9" height="2.7"/>
			<rect x="90.6" y="232.9" class="st1" width="54.9" height="2.7"/>
			<rect x="152.3" y="203.5" class="st1" width="54.9" height="2.7"/>
			<rect x="152.3" y="208.4" class="st1" width="54.9" height="2.7"/>
			<rect x="152.3" y="213.3" class="st1" width="54.9" height="2.7"/>
			<rect x="152.3" y="218.2" class="st1" width="54.9" height="2.7"/>
			<rect x="152.3" y="223.1" class="st1" width="54.9" height="2.7"/>
			<rect x="152.3" y="228" class="st1" width="54.9" height="2.7"/>
			<rect x="152.3" y="232.9" class="st1" width="54.9" height="2.7"/>
			<rect x="214.3" y="203.5" class="st1" width="54.9" height="2.7"/>
			<rect x="214.3" y="208.4" class="st1" width="54.9" height="2.7"/>
			<rect x="214.3" y="213.3" class="st1" width="54.9" height="2.7"/>
			<rect x="214.3" y="218.2" class="st1" width="54.9" height="2.7"/>
			<rect x="214.3" y="223.1" class="st1" width="54.9" height="2.7"/>
			<rect x="214.3" y="228" class="st1" width="54.9" height="2.7"/>
			<rect x="214.3" y="232.9" class="st1" width="54.9" height="2.7"/>
			<rect x="73.8" y="118" class="st4" width="210.5" height="65.7"/>
			<rect x="93.5" y="128.9" class="st10" width="54.3" height="44"/>
			<rect x="161.8" y="144.3" class="st8" width="86.8" height="1.4"/>
			<rect x="161.8" y="147.9" class="st8" width="86.8" height="1.4"/>
			<rect x="161.8" y="151.5" class="st8" width="86.8" height="1.4"/>
			<rect x="161.8" y="155" class="st8" width="57.2" height="1.4"/>
			<g>
				<polygon class="st10" points="76.2,150.9 78.8,149.4 81.4,147.9 81.4,150.9 81.4,153.9 78.8,152.4 				"/>
				<polygon class="st10" points="281.9,150.9 279.3,149.4 276.7,147.9 276.7,150.9 276.7,153.9 279.3,152.4 				"/>
			</g>
			<rect x="90.6" y="186.8" class="st11" width="54.9" height="14.2"/>
			<rect x="152.3" y="187.4" class="st12" width="54.9" height="14.2"/>
			<rect x="214.3" y="187.6" class="st4" width="54.9" height="14.2"/>
		</g>
	</g>
</g>
<g id="DESIGNED_BY_FREEPIK">
</g>
</svg>
