<?xml version="1.0" encoding="utf-8"?>
<!-- Generator: Adobe Illustrator 27.6.1, SVG Export Plug-In . SVG Version: 6.00 Build 0)  -->
<svg version="1.1" id="Layer_1" xmlns="http://www.w3.org/2000/svg" xmlns:xlink="http://www.w3.org/1999/xlink" x="0px" y="0px"
	 viewBox="0 0 1007.6 898.2" style="enable-background:new 0 0 1007.6 898.2;" xml:space="preserve">
<style type="text/css">
	.st0{fill:none;stroke:#D3D3D3;stroke-miterlimit:10;stroke-dasharray:11.8402,11.8402;}
	.st1{fill:#CAEDFF;}
	.st2{fill:#2A94F4;}
	.st3{fill:#F7F7F7;}
	.st4{fill:#1A87D8;}
	.st5{fill:none;stroke:#B4E6FC;stroke-width:2;stroke-miterlimit:10;}
	.st6{fill:#B0E1FF;}
	.st7{fill:#E2E2E2;}
	.st8{fill:#0B577C;}
	.st9{fill:#05303D;}
	.st10{fill:#FFFFFF;}
	.st11{fill:#FCD7B9;}
	.st12{fill:#1371B7;}
	.st13{fill:#FFE3CA;}
	.st14{fill:#074259;}
	.st15{fill:#FFA42C;}
	.st16{fill:#F2F2F2;}
	.st17{fill:#B4E6FC;}
	.st18{fill:#E88C1F;}
	.st19{fill:#9B9B9B;}
</style>
<g>
	<circle class="st0" cx="195.4" cy="179.1" r="131.9"/>
</g>
<path class="st1" d="M711.4,287.3h275c0,0-37.1-15.6-57.9-11.9c-12.3-9-35.1-17.9-49.3-13.4c-9.2-11.2-34.8-45.1-80.7-9.9
	c-8.5-3.2-50,0.1-57.5,17.7c-12.5-3.4-55-3.4-66.6,17.5C689.4,287.3,711.4,287.3,711.4,287.3z"/>
<path class="st2" d="M836.7,818.6c27.8-57.5,113.2-154.4,170.9-169.9C995,702,998,753.1,836.7,818.6z"/>
<g>
	<path class="st3" d="M283.4,120c-26,11.2-51.8,24.8-69.9,46.3s-27.3,52.3-16.4,78.1c14.6,34.5,60.7,54.5,60.9,91.8
		c0.2,26.7-24.9,47.2-50.1,56.9c-25.2,9.7-53.2,13.2-76.2,27.4C97,441.9,80.8,483.4,74.1,523.2c-6.9,41.3-4.1,88.4,25.6,118.4
		c36.9,37.3,97.8,33.1,150,25.1c69.6-10.6,139-23.1,208.3-35.5c151.9-27.3,303.9-54.6,455.8-82c16.3-2.9,33.2-6.1,46.5-15.9
		c26.3-19.5,28.5-59.7,13.2-88.4c-15.3-28.7-43.5-48.2-71.6-65.1c-28.1-16.9-57.7-32.9-78.8-57.8c-21-24.9-31.5-61.9-15.6-90.2
		c13.5-24.1,42.4-36.9,55.1-61.4c16.6-32.3-2.5-73.5-32.7-94.1C799.7,55.7,420.6,60.9,283.4,120z"/>
</g>
<path class="st4" d="M827.6,836.6C818.1,638,952.4,477.1,952.4,477.1S1001.1,667.6,827.6,836.6z"/>
<g>
	<path class="st5" d="M265.1,853.8H125.6V638.3c0-5.8,4.8-10.6,10.6-10.6h118.3c5.8,0,10.6,4.8,10.6,10.6V853.8z"/>
	<path class="st5" d="M453.5,852.1H314.1V559.7c0-6.8,5.6-12.3,12.3-12.3h114.8c6.8,0,12.3,5.6,12.3,12.3V852.1z"/>
	<path class="st5" d="M642,852.1H502.5V482.7c0-7.6,6.2-13.8,13.8-13.8h111.8c7.6,0,13.8,6.2,13.8,13.8v369.4H642z"/>
	<path class="st5" d="M830.4,852.1H690.9V405.5c0-8.4,6.8-15.2,15.2-15.2h109.1c8.4,0,15.2,6.8,15.2,15.2V852.1z"/>
</g>
<g>
	<g>
		<g>
			<path class="st2" d="M186,822.5c-47.6,9.8-98.4,2.6-141.5-19.8c48.3,1.5,96.5,7.7,143.5,18.7L186,822.5z"/>
		</g>
		<g>
			<path class="st6" d="M170.2,837.2c-46-15.7-85.5-49.7-107.8-92.9c44.2,18.3,75.9,57.2,105.6,94.7L170.2,837.2z"/>
		</g>
		<g>
			<path class="st2" d="M162,829.1c-31.1-26-46.9-69-40.3-109c25.1,34.8,40.9,76.2,45.5,118.9L162,829.1z"/>
		</g>
	</g>
</g>
<g>
	<polygon class="st7" points="822.5,111.9 818.1,107.3 820.9,104.6 825.6,110.8 	"/>
	<polyline class="st7" points="592.9,251.8 592.7,252.5 591.3,257.2 600.2,261.3 601.2,255.8 	"/>
	<path class="st8" d="M768.4,360.7c3.7,2.7,33.9,8.6,33.9,8.6l-2.7,7.5h-46.7v-16.1H768.4z"/>
	<path class="st8" d="M612.3,437.3c3.7,2.7,33.9,8.6,33.9,8.6l-2.7,7.5h-46.7v-16.1H612.3z"/>
	<path class="st9" d="M705.8,258.5c0,0,79-14.3,86.7-6.1c7.7,8.2-20.4,110.9-20.4,110.9h-22.8l12.2-82.4l-82,12.4L616,438.2h-20.4
		l53.8-181.8L705.8,258.5z"/>
	<path class="st8" d="M686.5,147.8l-26.3,4.7c0,0-71,30.4-68.9,101.5c7.4,4.5,11.5,5.2,11.5,5.2s-2.3-68.5,62.5-73.5
		c-14.1,52.3-19.6,75.6-19.6,75.6l60-2.8l23.3-88.1c27.5-20.6,57.7-32,94.3-58c0-2.1-4.5-6.9-4.5-6.9s-26.5,11.3-102.6,40.2
		C708.4,147.4,696.8,146.9,686.5,147.8z"/>
	<polygon class="st10" points="686.5,147.8 698.4,193.8 704.5,152.4 	"/>
	<polygon class="st11" points="698.4,135.7 704.5,152.4 698.4,156.1 686.5,147.8 681.7,128.9 	"/>
	<g>
		<path class="st12" d="M674,105c-7.7,1.9-13,26.1,9.2,32.8C679.6,111,674,105,674,105z"/>
		<path class="st13" d="M706.4,116.2c3.5,10.9,5.1,23.7-3.8,26.6s-25-5.3-28.5-16.3c-3.5-10.9,0.9-22.1,9.8-25
			S702.9,105.2,706.4,116.2z"/>
		<path class="st12" d="M687.5,116.2c9.7-2.1,21.1-9,18.7-14.1c-0.6-1.3-1.6-2.4-2.7-3.4c-4.1-3.7-9.7-5-15.1-3.9
			c-6.8,1.4-16.3,4.4-17.1,10.8C670,115.6,681.3,118.1,687.5,116.2z"/>
		<path class="st12" d="M680.5,113.2c-0.5,3.3-2.4,9.8-2.4,9.8l1.4,8.8l-3.7,1.8c0,0-8.3-18.7-3.8-22.6S680.5,113.2,680.5,113.2z"/>
		
			<ellipse transform="matrix(0.8383 -0.5452 0.5452 0.8383 39.0018 390.5383)" class="st13" cx="677.9" cy="129.5" rx="3.8" ry="4.5"/>
	</g>
	<path class="st14" d="M686.5,147.8l-6.1,9.6l6.1,7.7l-4.8,12c0,0,17,18.1,16.7,16.8S686.5,147.8,686.5,147.8z"/>
	<path class="st14" d="M705.1,147l6,6.3l-5.3,9.1l5.3,13.2c0,0-13,19.4-12.7,18.2S705.1,147,705.1,147z"/>
	<circle class="st14" cx="698.4" cy="205.2" r="1.7"/>
	<circle class="st14" cx="695.5" cy="219.7" r="1.7"/>
	<polygon class="st7" points="698.4,156.1 690.4,162.6 689,157.6 686.5,147.8 	"/>
	<polygon class="st7" points="698.4,156.1 702.9,162.6 703.7,158.1 704.5,152.4 	"/>
	<polygon class="st15" points="701.1,160 700,164.5 696.2,164.5 693.1,160.4 698.4,156.1 	"/>
	<polyline class="st15" points="696.2,164.5 693.8,175.8 698.4,193.8 701.1,175.5 700,164.5 	"/>
	<path class="st11" d="M591.3,257.2c-3.2,2.3-2.8,13.9-2.8,13.9l7.8,9.1c0,0,1.2-10.9,1.9-9.7s2.4,5.6,3,5.4c0.6-3.5-1-14.7-1-14.7
		L591.3,257.2z"/>
</g>
<path class="st16" d="M986.6,898.2H18.4c-6.3,0-11.4-5.1-11.4-11.4V830c0-6.3,5.1-11.4,11.4-11.4h968.2c6.3,0,11.4,5.1,11.4,11.4
	v56.8C998,893.1,992.9,898.2,986.6,898.2z"/>
<g>
	<path class="st17" d="M289.6,838.4H150.1V622.8c0-5.8,4.8-10.6,10.6-10.6h118.2c5.8,0,10.6,4.8,10.6,10.6L289.6,838.4L289.6,838.4z
		"/>
	<path class="st17" d="M478,836.6H338.5V544.3c0-6.8,5.6-12.3,12.3-12.3h114.8c6.8,0,12.3,5.6,12.3,12.3v292.3H478z"/>
	<path class="st17" d="M666.5,836.6H527V467.3c0-7.6,6.2-13.8,13.8-13.8h111.8c7.6,0,13.8,6.2,13.8,13.8v369.3H666.5z"/>
	<path class="st17" d="M854.9,836.6H715.4V390.1c0-8.4,6.8-15.2,15.2-15.2h109.1c8.4,0,15.2,6.8,15.2,15.2V836.6z"/>
</g>
<g>
	<polygon class="st18" points="886.2,11.7 977.5,11.7 939.1,38 959.2,60.7 881,64.4 	"/>
	<polygon class="st19" points="841.3,0.1 828.6,133.5 825.6,133.2 840,0 	"/>
	<polygon class="st15" points="841.3,0.1 932.5,0.1 914.3,51.3 836,55.1 	"/>
</g>
<path class="st11" d="M833.5,109.2l-0.1-12.4c-0.3-1.4-2.1-1.9-3-0.8l-8.7,9.6l4,5.2L833.5,109.2z"/>
<path class="st6" d="M62.4,179.1h464.5c0,0-62.7-26.4-97.9-20.1c-20.8-15.1-59.3-30.3-83.2-22.6c-15.5-19-58.9-76.1-136.2-16.7
	c-14.3-5.4-84.4,0.2-97.1,29.8c-21.1-5.8-92.9-5.8-112.5,29.6C25.3,179.1,62.4,179.1,62.4,179.1z"/>
</svg>
