<?xml version="1.0" encoding="utf-8"?>
<!-- Generator: Adobe Illustrator 27.6.1, SVG Export Plug-In . SVG Version: 6.00 Build 0)  -->
<svg version="1.1" id="レイヤー_1" xmlns="http://www.w3.org/2000/svg" xmlns:xlink="http://www.w3.org/1999/xlink" x="0px"
	 y="0px" viewBox="0 0 468.4 350.6" style="enable-background:new 0 0 468.4 350.6;" xml:space="preserve">
<style type="text/css">
	.st0{fill:#CCE9FF;}
	.st1{fill:#0E538D;}
	.st2{fill:#FFFFFF;}
	.st3{font-family:'ArialMT';}
	.st4{font-size:16.3572px;}
	.st5{letter-spacing:2;}
	.st6{fill:#F7F7F7;}
	.st7{fill:#FFBE55;}
	.st8{fill:#D3D3D3;}
	.st9{font-size:9.8086px;}
	.st10{fill:#FFBD58;}
	.st11{fill:#1E0F00;}
	.st12{fill:#F2F2F2;}
	.st13{fill:#D4D4D4;}
	.st14{fill:#2795F6;}
	.st15{fill:url(#SVGID_1_);}
	.st16{fill:url(#SVGID_00000125593762729471377430000012462100017857721259_);}
	.st17{fill:url(#SVGID_00000050645629090507492330000000248039178643787683_);}
	.st18{fill:url(#SVGID_00000020379056061263456880000008686464900140255119_);}
	.st19{fill:url(#SVGID_00000079477003841203602600000017313428232163188879_);}
	.st20{fill:url(#SVGID_00000107587935664797174710000003076763909359586725_);}
	.st21{fill:url(#SVGID_00000158749613244124946050000006336853690554618535_);}
	.st22{fill:url(#SVGID_00000036936912559341289510000000972345140906766475_);}
</style>
<g id="BACKGROUND">
</g>
<g id="OBJECTS">
	<g>
		<g>
			<path class="st0" d="M0,27v201.1c0,8,6.5,14.5,14.5,14.5h355.3c8,0,14.5-6.5,14.5-14.5V27H0z"/>
			<path class="st1" d="M384.4,42.9V12.7c0-7-5.7-12.7-12.7-12.7h-359C5.7,0,0,5.7,0,12.7v30.2C0,42.9,384.4,42.9,384.4,42.9z"/>
			<text transform="matrix(1 0 0 1 150.8285 27.2711)" class="st2 st3 st4 st5">MONTH</text>
			<g>
				<path class="st6" d="M49.8,98H21.9c-2.6,0-4.7-2.1-4.7-4.7V82.4c0-2.6,2.1-4.7,4.7-4.7h27.9c2.6,0,4.7,2.1,4.7,4.7v10.9
					C54.5,95.9,52.4,98,49.8,98z"/>
				<path class="st6" d="M100.9,98H73.1c-2.6,0-4.7-2.1-4.7-4.7V82.4c0-2.6,2.1-4.7,4.7-4.7H101c2.6,0,4.7,2.1,4.7,4.7v10.9
					C105.6,95.9,103.5,98,100.9,98z"/>
				<path class="st6" d="M152,98h-27.8c-2.6,0-4.7-2.1-4.7-4.7V82.4c0-2.6,2.1-4.7,4.7-4.7h27.9c2.6,0,4.7,2.1,4.7,4.7v10.9
					C156.7,95.9,154.6,98,152,98z"/>
				<path class="st6" d="M203.2,98h-27.9c-2.6,0-4.7-2.1-4.7-4.7V82.4c0-2.6,2.1-4.7,4.7-4.7h27.9c2.6,0,4.7,2.1,4.7,4.7v10.9
					C207.9,95.9,205.7,98,203.2,98z"/>
				<path class="st6" d="M254.3,98h-27.9c-2.6,0-4.7-2.1-4.7-4.7V82.4c0-2.6,2.1-4.7,4.7-4.7h27.9c2.6,0,4.7,2.1,4.7,4.7v10.9
					C259,95.9,256.9,98,254.3,98z"/>
				<path class="st6" d="M305.4,98h-27.9c-2.6,0-4.7-2.1-4.7-4.7V82.4c0-2.6,2.1-4.7,4.7-4.7h27.9c2.6,0,4.7,2.1,4.7,4.7v10.9
					C310.1,95.9,308,98,305.4,98z"/>
				<path class="st6" d="M356.5,98h-27.9c-2.6,0-4.7-2.1-4.7-4.7V82.4c0-2.6,2.1-4.7,4.7-4.7h27.9c2.6,0,4.7,2.1,4.7,4.7v10.9
					C361.2,95.9,359.1,98,356.5,98z"/>
			</g>
			<g>
				<path class="st6" d="M49.8,129.7H21.9c-2.6,0-4.7-2.1-4.7-4.7v-10.9c0-2.6,2.1-4.7,4.7-4.7h27.9c2.6,0,4.7,2.1,4.7,4.7V125
					C54.5,127.6,52.4,129.7,49.8,129.7z"/>
				<path class="st6" d="M100.9,129.7H73.1c-2.6,0-4.7-2.1-4.7-4.7v-10.9c0-2.6,2.1-4.7,4.7-4.7H101c2.6,0,4.7,2.1,4.7,4.7V125
					C105.6,127.6,103.5,129.7,100.9,129.7z"/>
				<path class="st6" d="M152,129.7h-27.8c-2.6,0-4.7-2.1-4.7-4.7v-10.9c0-2.6,2.1-4.7,4.7-4.7h27.9c2.6,0,4.7,2.1,4.7,4.7V125
					C156.7,127.6,154.6,129.7,152,129.7z"/>
				<path class="st6" d="M203.2,129.7h-27.9c-2.6,0-4.7-2.1-4.7-4.7v-10.9c0-2.6,2.1-4.7,4.7-4.7h27.9c2.6,0,4.7,2.1,4.7,4.7V125
					C207.9,127.6,205.7,129.7,203.2,129.7z"/>
				<path class="st6" d="M254.3,129.7h-27.9c-2.6,0-4.7-2.1-4.7-4.7v-10.9c0-2.6,2.1-4.7,4.7-4.7h27.9c2.6,0,4.7,2.1,4.7,4.7V125
					C259,127.6,256.9,129.7,254.3,129.7z"/>
				<path class="st6" d="M305.4,129.7h-27.9c-2.6,0-4.7-2.1-4.7-4.7v-10.9c0-2.6,2.1-4.7,4.7-4.7h27.9c2.6,0,4.7,2.1,4.7,4.7V125
					C310.1,127.6,308,129.7,305.4,129.7z"/>
				<path class="st6" d="M356.5,129.7h-27.9c-2.6,0-4.7-2.1-4.7-4.7v-10.9c0-2.6,2.1-4.7,4.7-4.7h27.9c2.6,0,4.7,2.1,4.7,4.7V125
					C361.2,127.6,359.1,129.7,356.5,129.7z"/>
			</g>
			<g>
				<path class="st6" d="M49.8,161.5H21.9c-2.6,0-4.7-2.1-4.7-4.7v-10.9c0-2.6,2.1-4.7,4.7-4.7h27.9c2.6,0,4.7,2.1,4.7,4.7v10.9
					C54.5,159.3,52.4,161.5,49.8,161.5z"/>
				<path class="st6" d="M100.9,161.5H73.1c-2.6,0-4.7-2.1-4.7-4.7v-10.9c0-2.6,2.1-4.7,4.7-4.7H101c2.6,0,4.7,2.1,4.7,4.7v10.9
					C105.6,159.3,103.5,161.5,100.9,161.5z"/>
				<path class="st6" d="M152,161.5h-27.8c-2.6,0-4.7-2.1-4.7-4.7v-10.9c0-2.6,2.1-4.7,4.7-4.7h27.9c2.6,0,4.7,2.1,4.7,4.7v10.9
					C156.7,159.3,154.6,161.5,152,161.5z"/>
				<path class="st6" d="M203.2,161.5h-27.9c-2.6,0-4.7-2.1-4.7-4.7v-10.9c0-2.6,2.1-4.7,4.7-4.7h27.9c2.6,0,4.7,2.1,4.7,4.7v10.9
					C207.9,159.3,205.7,161.5,203.2,161.5z"/>
				<path class="st6" d="M254.3,161.5h-27.9c-2.6,0-4.7-2.1-4.7-4.7v-10.9c0-2.6,2.1-4.7,4.7-4.7h27.9c2.6,0,4.7,2.1,4.7,4.7v10.9
					C259,159.3,256.9,161.5,254.3,161.5z"/>
				<path class="st6" d="M305.4,161.5h-27.9c-2.6,0-4.7-2.1-4.7-4.7v-10.9c0-2.6,2.1-4.7,4.7-4.7h27.9c2.6,0,4.7,2.1,4.7,4.7v10.9
					C310.1,159.3,308,161.5,305.4,161.5z"/>
				<path class="st6" d="M356.5,161.5h-27.9c-2.6,0-4.7-2.1-4.7-4.7v-10.9c0-2.6,2.1-4.7,4.7-4.7h27.9c2.6,0,4.7,2.1,4.7,4.7v10.9
					C361.2,159.3,359.1,161.5,356.5,161.5z"/>
			</g>
			<path class="st6" d="M49.8,193.2H21.9c-2.6,0-4.7-2.1-4.7-4.7v-10.9c0-2.6,2.1-4.7,4.7-4.7h27.9c2.6,0,4.7,2.1,4.7,4.7v10.9
				C54.5,191.1,52.4,193.2,49.8,193.2z"/>
			<path class="st6" d="M100.9,193.2H73.1c-2.6,0-4.7-2.1-4.7-4.7v-10.9c0-2.6,2.1-4.7,4.7-4.7H101c2.6,0,4.7,2.1,4.7,4.7v10.9
				C105.6,191.1,103.5,193.2,100.9,193.2z"/>
			<path class="st6" d="M152,193.2h-27.8c-2.6,0-4.7-2.1-4.7-4.7v-10.9c0-2.6,2.1-4.7,4.7-4.7h27.9c2.6,0,4.7,2.1,4.7,4.7v10.9
				C156.7,191.1,154.6,193.2,152,193.2z"/>
			<path class="st6" d="M203.2,193.2h-27.9c-2.6,0-4.7-2.1-4.7-4.7v-10.9c0-2.6,2.1-4.7,4.7-4.7h27.9c2.6,0,4.7,2.1,4.7,4.7v10.9
				C207.9,191.1,205.7,193.2,203.2,193.2z"/>
			<path class="st7" d="M254.3,193.2h-27.9c-2.6,0-4.7-2.1-4.7-4.7v-10.9c0-2.6,2.1-4.7,4.7-4.7h27.9c2.6,0,4.7,2.1,4.7,4.7v10.9
				C259,191.1,256.9,193.2,254.3,193.2z"/>
			<path class="st6" d="M305.4,193.2h-27.9c-2.6,0-4.7-2.1-4.7-4.7v-10.9c0-2.6,2.1-4.7,4.7-4.7h27.9c2.6,0,4.7,2.1,4.7,4.7v10.9
				C310.1,191.1,308,193.2,305.4,193.2z"/>
			<path class="st6" d="M356.5,193.2h-27.9c-2.6,0-4.7-2.1-4.7-4.7v-10.9c0-2.6,2.1-4.7,4.7-4.7h27.9c2.6,0,4.7,2.1,4.7,4.7v10.9
				C361.2,191.1,359.1,193.2,356.5,193.2z"/>
			<g>
				<path class="st6" d="M49.8,224.9H21.9c-2.6,0-4.7-2.1-4.7-4.7v-10.9c0-2.6,2.1-4.7,4.7-4.7h27.9c2.6,0,4.7,2.1,4.7,4.7v10.9
					C54.5,222.8,52.4,224.9,49.8,224.9z"/>
				<path class="st6" d="M100.9,224.9H73.1c-2.6,0-4.7-2.1-4.7-4.7v-10.9c0-2.6,2.1-4.7,4.7-4.7H101c2.6,0,4.7,2.1,4.7,4.7v10.9
					C105.6,222.8,103.5,224.9,100.9,224.9z"/>
				<path class="st6" d="M152,224.9h-27.8c-2.6,0-4.7-2.1-4.7-4.7v-10.9c0-2.6,2.1-4.7,4.7-4.7h27.9c2.6,0,4.7,2.1,4.7,4.7v10.9
					C156.7,222.8,154.6,224.9,152,224.9z"/>
			</g>
			<g>
				<g>
					<text transform="matrix(1 0 0 1 39.0365 87.8287)" class="st8 st3 st9">01</text>
					<text transform="matrix(1 0 0 1 91.307 87.8287)" class="st8 st3 st9">02</text>
					<text transform="matrix(1 0 0 1 138.1166 87.8287)" class="st8 st3 st9">03</text>
					<text transform="matrix(1 0 0 1 188.9955 87.8287)" class="st8 st3 st9">04</text>
					<text transform="matrix(1 0 0 1 239.6576 87.8287)" class="st8 st3 st9">05</text>
					<text transform="matrix(1 0 0 1 292.1371 87.8287)" class="st8 st3 st9">06</text>
					<text transform="matrix(1 0 0 1 343.2523 87.8287)" class="st8 st3 st9">07</text>
				</g>
				<g>
					<text transform="matrix(1 0 0 1 36.3285 120.5435)" class="st8 st3 st9">08</text>
					<text transform="matrix(1 0 0 1 91.307 120.5435)" class="st8 st3 st9">09</text>
					<text transform="matrix(1 0 0 1 139.9906 120.5435)" class="st8 st3 st9">10</text>
					<text transform="matrix(1 0 0 1 193.0843 120.5435)" class="st8 st3 st9">11</text>
					<text transform="matrix(1 0 0 1 243.7464 120.5435)" class="st8 st3 st9">12</text>
					<text transform="matrix(1 0 0 1 293.5004 120.5435)" class="st8 st3 st9">13</text>
					<text transform="matrix(1 0 0 1 344.6156 120.5435)" class="st8 st3 st9">14</text>
				</g>
				<g>
					<text transform="matrix(1 0 0 1 39.8597 151.8951)" class="st8 st3 st9">15</text>
					<text transform="matrix(1 0 0 1 91.307 151.8951)" class="st8 st3 st9">16</text>
					<text transform="matrix(1 0 0 1 140.6283 151.8951)" class="st8 st3 st9">17</text>
					<text transform="matrix(1 0 0 1 193.0843 151.8951)" class="st8 st3 st9">18</text>
					<text transform="matrix(1 0 0 1 243.7464 151.8951)" class="st8 st3 st9">19</text>
					<text transform="matrix(1 0 0 1 292.1371 151.8951)" class="st8 st3 st9">20</text>
					<text transform="matrix(1 0 0 1 345.9789 151.8951)" class="st8 st3 st9">21</text>
				</g>
				<g>
					<text transform="matrix(1 0 0 1 37.9086 184.6089)" class="st8 st3 st9">22</text>
					<text transform="matrix(1 0 0 1 88.5814 184.6089)" class="st8 st3 st9">23</text>
					<text transform="matrix(1 0 0 1 138.1068 184.6089)" class="st8 st3 st9">24</text>
					<text transform="matrix(1 0 0 1 191.722 184.6089)" class="st8 st3 st9">25</text>
					<text transform="matrix(1 0 0 1 292.1371 184.6089)" class="st8 st3 st9">27</text>
					<text transform="matrix(1 0 0 1 345.9789 184.6089)" class="st8 st3 st9">28</text>
				</g>
				<g>
					<text transform="matrix(1 0 0 1 37.4672 215.9604)" class="st8 st3 st9">29</text>
					<text transform="matrix(1 0 0 1 88.5814 215.9604)" class="st8 st3 st9">30</text>
					<text transform="matrix(1 0 0 1 140.8832 217.3228)" class="st8 st3 st9">31</text>
				</g>
			</g>
			<g>
				<g>
					<text transform="matrix(1 0 0 1 26.7865 64.983)" class="st1 st3 st4">M</text>
				</g>
				<g>
					<text transform="matrix(1 0 0 1 78.5843 64.983)" class="st1 st3 st4">T</text>
				</g>
				<g>
					<text transform="matrix(1 0 0 1 130.3822 64.983)" class="st1 st3 st4">W</text>
				</g>
				<g>
					<text transform="matrix(1 0 0 1 182.18 64.983)" class="st1 st3 st4">T</text>
				</g>
				<g>
					<text transform="matrix(1 0 0 1 233.9769 64.983)" class="st1 st3 st4">F</text>
				</g>
				<g>
					<text transform="matrix(1 0 0 1 285.7748 64.983)" class="st1 st3 st4">S</text>
				</g>
				<g>
					<text transform="matrix(1 0 0 1 337.5726 64.983)" class="st1 st3 st4">S</text>
				</g>
			</g>
			<circle class="st2" cx="321.7" cy="22" r="5.5"/>
			<circle class="st2" cx="339.4" cy="22" r="5.5"/>
			<circle class="st7" cx="357.1" cy="22" r="5.5"/>
		</g>
		<path class="st10" d="M188.8,159.6c-21.8,0-39.6-17.8-39.6-39.6s17.8-39.6,39.6-39.6s39.6,17.8,39.6,39.6S210.6,159.6,188.8,159.6
			z"/>
		<circle class="st11" cx="188.8" cy="120" r="26.4"/>
		<path class="st12" d="M382.9,350.6H253.2c-10.9,0-19.7-8.8-19.7-19.7V220.4c0-10.9,8.8-19.7,19.7-19.7H383
			c10.9,0,19.7,8.8,19.7,19.7v110.4C402.7,341.8,393.8,350.6,382.9,350.6z"/>
		<g>
			<path class="st13" d="M279.4,236H262c-2,0-3.6-1.6-3.6-3.6l0,0c0-2,1.6-3.6,3.6-3.6h17.4c2,0,3.6,1.6,3.6,3.6l0,0
				C283,234.4,281.4,236,279.4,236z"/>
			<path class="st13" d="M374.2,236h-70.1c-2,0-3.6-1.6-3.6-3.6l0,0c0-2,1.6-3.6,3.6-3.6h70.1c2,0,3.6,1.6,3.6,3.6l0,0
				C377.8,234.4,376.2,236,374.2,236z"/>
			<path class="st13" d="M279.4,253.3H262c-2,0-3.6-1.6-3.6-3.6l0,0c0-2,1.6-3.6,3.6-3.6h17.4c2,0,3.6,1.6,3.6,3.6l0,0
				C283,251.7,281.4,253.3,279.4,253.3z"/>
			<path class="st13" d="M374.2,253.3h-70.1c-2,0-3.6-1.6-3.6-3.6l0,0c0-2,1.6-3.6,3.6-3.6h70.1c2,0,3.6,1.6,3.6,3.6l0,0
				C377.8,251.7,376.2,253.3,374.2,253.3z"/>
			<path class="st13" d="M279.4,270.6H262c-2,0-3.6-1.6-3.6-3.6l0,0c0-2,1.6-3.6,3.6-3.6h17.4c2,0,3.6,1.6,3.6,3.6l0,0
				C283,269,281.4,270.6,279.4,270.6z"/>
			<path class="st13" d="M374.2,270.6h-70.1c-2,0-3.6-1.6-3.6-3.6l0,0c0-2,1.6-3.6,3.6-3.6h70.1c2,0,3.6,1.6,3.6,3.6l0,0
				C377.8,269,376.2,270.6,374.2,270.6z"/>
			<path class="st13" d="M279.4,287.9H262c-2,0-3.6-1.6-3.6-3.6l0,0c0-2,1.6-3.6,3.6-3.6h17.4c2,0,3.6,1.6,3.6,3.6l0,0
				C283,286.3,281.4,287.9,279.4,287.9z"/>
			<path class="st13" d="M374.2,287.9h-70.1c-2,0-3.6-1.6-3.6-3.6l0,0c0-2,1.6-3.6,3.6-3.6h70.1c2,0,3.6,1.6,3.6,3.6l0,0
				C377.8,286.3,376.2,287.9,374.2,287.9z"/>
			<path class="st13" d="M279.4,305.2H262c-2,0-3.6-1.6-3.6-3.6l0,0c0-2,1.6-3.6,3.6-3.6h17.4c2,0,3.6,1.6,3.6,3.6l0,0
				C283,303.6,281.4,305.2,279.4,305.2z"/>
			<path class="st13" d="M374.2,305.2h-70.1c-2,0-3.6-1.6-3.6-3.6l0,0c0-2,1.6-3.6,3.6-3.6h70.1c2,0,3.6,1.6,3.6,3.6l0,0
				C377.8,303.6,376.2,305.2,374.2,305.2z"/>
			<path class="st13" d="M279.4,322.5H262c-2,0-3.6-1.6-3.6-3.6l0,0c0-2,1.6-3.6,3.6-3.6h17.4c2,0,3.6,1.6,3.6,3.6l0,0
				C283,320.9,281.4,322.5,279.4,322.5z"/>
			<path class="st13" d="M374.2,322.5h-70.1c-2,0-3.6-1.6-3.6-3.6l0,0c0-2,1.6-3.6,3.6-3.6h70.1c2,0,3.6,1.6,3.6,3.6l0,0
				C377.8,320.9,376.2,322.5,374.2,322.5z"/>
		</g>
		<circle class="st14" cx="392.7" cy="147.3" r="75.7"/>
		<path class="st0" d="M438.4,193c-25.2,25.2-66.1,25.2-91.3,0c-25.2-25.2-25.2-66.1,0-91.3s66.1-25.2,91.3,0S463.6,167.8,438.4,193
			z"/>
		<path class="st1" d="M418.4,144.2H396v-31.6c0-1.7-1.4-3.1-3.1-3.1s-3.1,1.4-3.1,3.1v34.7c0,1.7,1.4,3.1,3.1,3.1h25.4
			c1.7,0,3.1-1.4,3.1-3.1S420.1,144.2,418.4,144.2z"/>
		<g>
			<g>
				
					<linearGradient id="SVGID_1_" gradientUnits="userSpaceOnUse" x1="392.7" y1="253.5669" x2="392.7" y2="260.7604" gradientTransform="matrix(1 0 0 -1 0 350.4898)">
					<stop  offset="0" style="stop-color:#FF8F00"/>
					<stop  offset="1" style="stop-color:#FFBD00"/>
				</linearGradient>
				<path class="st15" d="M392.7,89.7c-0.5,0-1,0.4-1,1V96c0,0.5,0.4,1,1,1c0.5,0,1-0.4,1-1v-5.3C393.7,90.2,393.3,89.7,392.7,89.7z
					"/>
				
					<linearGradient id="SVGID_00000033337011934682592490000015438029042802092161_" gradientUnits="userSpaceOnUse" x1="392.7" y1="145.5524" x2="392.7" y2="152.7459" gradientTransform="matrix(1 0 0 -1 0 350.4898)">
					<stop  offset="0" style="stop-color:#FF8F00"/>
					<stop  offset="1" style="stop-color:#FFBD00"/>
				</linearGradient>
				<path style="fill:url(#SVGID_00000033337011934682592490000015438029042802092161_);" d="M392.7,197.7c-0.5,0-1,0.4-1,1v5.3
					c0,0.5,0.4,1,1,1c0.5,0,1-0.4,1-1v-5.3C393.7,198.2,393.3,197.7,392.7,197.7z"/>
				
					<linearGradient id="SVGID_00000005977838956598051030000001745481711507638932_" gradientUnits="userSpaceOnUse" x1="338.75" y1="202.1933" x2="338.75" y2="204.1196" gradientTransform="matrix(1 0 0 -1 0 350.4898)">
					<stop  offset="0" style="stop-color:#FF8F00"/>
					<stop  offset="1" style="stop-color:#FFBD00"/>
				</linearGradient>
				<path style="fill:url(#SVGID_00000005977838956598051030000001745481711507638932_);" d="M341.4,146.4h-5.3c-0.5,0-1,0.4-1,1
					c0,0.5,0.4,1,1,1h5.3c0.5,0,1-0.4,1-1C342.3,146.8,341.9,146.4,341.4,146.4z"/>
				
					<linearGradient id="SVGID_00000029018315625441208470000012129840936377167028_" gradientUnits="userSpaceOnUse" x1="446.75" y1="202.1933" x2="446.75" y2="204.1196" gradientTransform="matrix(1 0 0 -1 0 350.4898)">
					<stop  offset="0" style="stop-color:#FF8F00"/>
					<stop  offset="1" style="stop-color:#FFBD00"/>
				</linearGradient>
				<path style="fill:url(#SVGID_00000029018315625441208470000012129840936377167028_);" d="M449.4,146.4h-5.3c-0.5,0-1,0.4-1,1
					c0,0.5,0.4,1,1,1h5.3c0.5,0,1-0.4,1-1C450.3,146.8,449.9,146.4,449.4,146.4z"/>
				
					<linearGradient id="SVGID_00000152981496017729615340000017347596211677319811_" gradientUnits="userSpaceOnUse" x1="354.55" y1="238.5198" x2="354.55" y2="244.1707" gradientTransform="matrix(1 0 0 -1 0 350.4898)">
					<stop  offset="0" style="stop-color:#FF8F00"/>
					<stop  offset="1" style="stop-color:#FFBD00"/>
				</linearGradient>
				<path style="fill:url(#SVGID_00000152981496017729615340000017347596211677319811_);" d="M353.4,106.6c-0.4-0.4-1-0.4-1.4,0
					s-0.4,1,0,1.4l3.7,3.7c0.4,0.4,1,0.4,1.4,0s0.4-1,0-1.4L353.4,106.6z"/>
				
					<linearGradient id="SVGID_00000008847474905972088980000017147148622759082899_" gradientUnits="userSpaceOnUse" x1="430.85" y1="162.1421" x2="430.85" y2="167.7928" gradientTransform="matrix(1 0 0 -1 0 350.4898)">
					<stop  offset="0" style="stop-color:#FF8F00"/>
					<stop  offset="1" style="stop-color:#FFBD00"/>
				</linearGradient>
				<path style="fill:url(#SVGID_00000008847474905972088980000017147148622759082899_);" d="M429.7,183c-0.4-0.4-1-0.4-1.4,0
					s-0.4,1,0,1.4l3.7,3.7c0.4,0.4,1,0.4,1.4,0s0.4-1,0-1.4L429.7,183z"/>
				
					<linearGradient id="SVGID_00000023993960084520343470000011528865983917600417_" gradientUnits="userSpaceOnUse" x1="354.55" y1="162.1421" x2="354.55" y2="167.7928" gradientTransform="matrix(1 0 0 -1 0 350.4898)">
					<stop  offset="0" style="stop-color:#FF8F00"/>
					<stop  offset="1" style="stop-color:#FFBD00"/>
				</linearGradient>
				<path style="fill:url(#SVGID_00000023993960084520343470000011528865983917600417_);" d="M355.7,183l-3.7,3.7
					c-0.4,0.4-0.4,1,0,1.4s1,0.4,1.4,0l3.7-3.7c0.4-0.4,0.4-1,0-1.4C356.7,182.6,356.1,182.6,355.7,183z"/>
				
					<linearGradient id="SVGID_00000056414073698644504230000016632111347913469332_" gradientUnits="userSpaceOnUse" x1="430.95" y1="238.5198" x2="430.95" y2="244.1707" gradientTransform="matrix(1 0 0 -1 0 350.4898)">
					<stop  offset="0" style="stop-color:#FF8F00"/>
					<stop  offset="1" style="stop-color:#FFBD00"/>
				</linearGradient>
				<path style="fill:url(#SVGID_00000056414073698644504230000016632111347913469332_);" d="M432.1,106.6l-3.7,3.7
					c-0.4,0.4-0.4,1,0,1.4s1,0.4,1.4,0l3.7-3.7c0.4-0.4,0.4-1,0-1.4C433.1,106.2,432.5,106.2,432.1,106.6z"/>
			</g>
			<g>
				<path class="st1" d="M392.7,89.7c-0.5,0-1,0.4-1,1V96c0,0.5,0.4,1,1,1c0.5,0,1-0.4,1-1v-5.3C393.7,90.2,393.3,89.7,392.7,89.7z"
					/>
				<path class="st1" d="M392.7,197.7c-0.5,0-1,0.4-1,1v5.3c0,0.5,0.4,1,1,1c0.5,0,1-0.4,1-1v-5.3
					C393.7,198.2,393.3,197.7,392.7,197.7z"/>
				<path class="st1" d="M341.4,146.4h-5.3c-0.5,0-1,0.4-1,1c0,0.5,0.4,1,1,1h5.3c0.5,0,1-0.4,1-1
					C342.3,146.8,341.9,146.4,341.4,146.4z"/>
				<path class="st1" d="M449.4,146.4h-5.3c-0.5,0-1,0.4-1,1c0,0.5,0.4,1,1,1h5.3c0.5,0,1-0.4,1-1
					C450.3,146.8,449.9,146.4,449.4,146.4z"/>
				<path class="st1" d="M353.4,106.6c-0.4-0.4-1-0.4-1.4,0s-0.4,1,0,1.4l3.7,3.7c0.4,0.4,1,0.4,1.4,0s0.4-1,0-1.4L353.4,106.6z"/>
				<path class="st1" d="M429.7,183c-0.4-0.4-1-0.4-1.4,0s-0.4,1,0,1.4l3.7,3.7c0.4,0.4,1,0.4,1.4,0s0.4-1,0-1.4L429.7,183z"/>
				<path class="st1" d="M355.7,183l-3.7,3.7c-0.4,0.4-0.4,1,0,1.4s1,0.4,1.4,0l3.7-3.7c0.4-0.4,0.4-1,0-1.4
					C356.7,182.6,356.1,182.6,355.7,183z"/>
				<path class="st1" d="M432.1,106.6l-3.7,3.7c-0.4,0.4-0.4,1,0,1.4s1,0.4,1.4,0l3.7-3.7c0.4-0.4,0.4-1,0-1.4
					C433.1,106.2,432.5,106.2,432.1,106.6z"/>
			</g>
		</g>
		<polygon class="st2" points="180.3,136.7 169.2,125.6 173.6,121.1 180.3,127.8 201.6,106 206.1,110.3 		"/>
	</g>
</g>
</svg>
