<?xml version="1.0" encoding="utf-8"?>
<!-- Generator: Adobe Illustrator 27.6.1, SVG Export Plug-In . SVG Version: 6.00 Build 0)  -->
<svg version="1.1" id="レイヤー_1" xmlns="http://www.w3.org/2000/svg" xmlns:xlink="http://www.w3.org/1999/xlink" x="0px"
	 y="0px" viewBox="0 0 1413.9 1074.4" style="enable-background:new 0 0 1413.9 1074.4;" xml:space="preserve">
<style type="text/css">
	.st0{opacity:0.11;fill-rule:evenodd;clip-rule:evenodd;fill:#FFBE55;enable-background:new    ;}
	.st1{opacity:0.11;fill:#FFBE55;enable-background:new    ;}
	.st2{opacity:0.11;}
	.st3{fill:#FFBE55;}
	.st4{fill:#FCD2B1;}
	.st5{fill-rule:evenodd;clip-rule:evenodd;fill:#FFBE55;}
	.st6{fill:#F7B690;}
	.st7{fill-rule:evenodd;clip-rule:evenodd;fill:#0B4870;}
	.st8{fill-rule:evenodd;clip-rule:evenodd;fill:#0E538C;}
	.st9{fill:#FFE3CA;}
	.st10{fill:#0E538C;}
	.st11{fill:#0B4870;}
</style>
<g id="Background">
	<path class="st0" d="M235.9,210c104.5-71,267-291.3,615.7-178.4s578.3,279.7,546.2,517.1s-238.5,257.1-292.9,407.6
		c-39.1,108.4-686.5,271.3-756.1-195.1c-12.8-85.8-318.1-26.5-333.4-230.1C0,327.5,120.5,288.4,235.9,210z"/>
	<ellipse class="st1" cx="641.3" cy="1001.4" rx="489.9" ry="30.2"/>
	<g>
		<g>
			<g>
				<g class="st2">
					<path class="st3" d="M1397.5,950H848.7c-9,0-16.4-7.3-16.4-16.4v-443c0-9,7.3-16.4,16.4-16.4h548.9c9,0,16.4,7.3,16.4,16.4v443
						C1413.9,942.7,1406.6,950,1397.5,950z"/>
				</g>
				<g class="st2">
					<path class="st3" d="M1397.5,950H848.7c-9,0-16.4-7.3-16.4-16.4v-443c0-9,7.3-16.4,16.4-16.4h548.9c9,0,16.4,7.3,16.4,16.4v443
						C1413.9,942.7,1406.6,950,1397.5,950z"/>
				</g>
			</g>
		</g>
		<g>
			<rect x="880.6" y="516.5" class="st3" width="224.3" height="179"/>
			<polyline class="st3" points="1365.6,865.7 1365.6,907.9 880.6,907.9 880.6,823.6 1365.6,823.6 1365.6,865.7 			"/>
			<rect x="1139.2" y="516.5" class="st3" width="226.4" height="14.6"/>
			<rect x="1139.2" y="548.7" class="st3" width="226.4" height="14.6"/>
			<rect x="1139.2" y="581" class="st3" width="226.4" height="14.6"/>
			<rect x="1139.2" y="613.2" class="st3" width="226.4" height="14.6"/>
			<rect x="1139.2" y="645.5" class="st3" width="226.4" height="14.6"/>
			<rect x="880.6" y="721.6" class="st3" width="485" height="14.6"/>
			<rect x="880.6" y="753.9" class="st3" width="485" height="14.6"/>
			<rect x="880.6" y="786.1" class="st3" width="485" height="14.6"/>
			<rect x="1139.2" y="677.8" class="st3" width="171.3" height="14.6"/>
		</g>
	</g>
	<g>
		<g>
			<path class="st1" d="M615.3,823.6H16.4c-9,0-16.4-7.3-16.4-16.4V323.3c0-9,7.3-16.4,16.4-16.4h598.9c9,0,16.4,7.3,16.4,16.4
				v483.9C631.6,816.3,624.3,823.6,615.3,823.6z"/>
			<path class="st1" d="M615.3,823.6H16.4c-9,0-16.4-7.3-16.4-16.4V323.3c0-9,7.3-16.4,16.4-16.4h598.9c9,0,16.4,7.3,16.4,16.4
				v483.9C631.6,816.3,624.3,823.6,615.3,823.6z"/>
		</g>
		<g>
			<rect x="52.4" y="485.9" class="st3" width="526.7" height="274"/>
			<rect x="333.3" y="370.6" class="st3" width="245.9" height="15.9"/>
			<rect x="333.3" y="405.6" class="st3" width="245.9" height="15.9"/>
			<rect x="333.3" y="440.7" class="st3" width="245.9" height="15.9"/>
			<rect x="52.4" y="370.6" class="st3" width="245.9" height="15.9"/>
			<rect x="52.4" y="405.6" class="st3" width="245.9" height="15.9"/>
			<rect x="52.4" y="440.7" class="st3" width="245.9" height="15.9"/>
		</g>
	</g>
	<g>
		<g>
			<path class="st1" d="M1268.5,408.2H758.8c-9,0-16.4-7.3-16.4-16.4V208.4c0-9,7.3-16.4,16.4-16.4h509.7c9,0,16.4,7.3,16.4,16.4
				v183.4C1284.9,400.8,1277.5,408.2,1268.5,408.2z"/>
			<path class="st1" d="M1268.5,408.2H758.8c-9,0-16.4-7.3-16.4-16.4V208.4c0-9,7.3-16.4,16.4-16.4h509.7c9,0,16.4,7.3,16.4,16.4
				v183.4C1284.9,400.8,1277.5,408.2,1268.5,408.2z"/>
		</g>
		<g>
			<rect x="1036" y="238.5" class="st3" width="203.8" height="123.3"/>
			<rect x="787.5" y="263.2" class="st3" width="211.2" height="13.6"/>
			<rect x="787.5" y="293.3" class="st3" width="211.2" height="13.6"/>
			<rect x="787.5" y="323.4" class="st3" width="211.2" height="13.6"/>
		</g>
	</g>
</g>
<g id="Character">
	<g>
		<g>
			<path class="st4" d="M481.7,801.4c-1,9.6-1.6,19.8,2.8,28.4c4.4,8.6,15.6,14.4,24,9.7c4.8-2.6,7.5-7.7,10-12.6
				c13.9-27.2,27.8-54.4,41.7-81.6c11.4-22.4,23.2-46.2,21.7-71.4c-0.7-11.6-4.3-23.2-11.3-32.5c-6.1-8.1-19.5-21-28.6-11.5
				c-9.1,9.4-15.4,25.9-21.2,37.6c-13.3,27-23.6,55.4-30.6,84.7C486.3,768.4,483.5,784.8,481.7,801.4z"/>
			<path class="st5" d="M581.8,679.3c-0.7-12.9-4.8-25.8-12.6-36.1c-6.8-9-10.8-31.7-21-21.1c-10.2,10.5-28,37.1-34.4,50.1
				c-8.5,17.1-15.8,34.7-22,52.8l66.6,32.3C570.9,732.7,583.4,706.7,581.8,679.3z"/>
			<path class="st6" d="M483.8,799.5c6.8-8.2,18.4-11.1,29-9.9c10.6,1.2,20.4,5.8,30,10.4c17.6,8.4,35.2,16.8,52.8,25.2
				c18.2,8.7,36.4,17.3,54.5,26c2.8,1.4,5.9,3,6.9,6c1,3.2-1.2,6.7-4.1,8.4c-2.9,1.7-6.4,2-9.8,2.1c-27.3,1.4-54.7-1.2-81.3-7.5
				c-13.4-3.2-26.6-7.4-39.4-12.5c-11-4.4-26.6-9.2-35.5-17.3C478.4,822.7,476.3,808.7,483.8,799.5z"/>
		</g>
		<g>
			<path class="st7" d="M597.9,860.8c20.3-3,116.4-3,136.7,0c25.2,3.7,21.4,35,18.2,53.8c-3.5,20.5-7.7,42.4-22.7,56.8
				c-14.7,14-112.9,14-127.6,0c-15-14.3-19.3-36.3-22.7-56.8C576.5,895.9,572.7,864.5,597.9,860.8z"/>
			<path class="st7" d="M950.7,946.8c10.6,11.7,17.5,30.8,8.3,42.9c-7.8,10.3-224.8-9.9-256.9-9.9c-22.8-29.1-21.9-73.2,36.5-103
				c12.5-6.4,26.2,0.3,39.8,3.2C817.8,888.3,924.5,917.8,950.7,946.8z"/>
			<path class="st7" d="M481.4,739.6c-15.7-1.4-33,4.7-40.6,18.5c-6.2,11.3-4.9,25.5,0.4,37.2c5.3,11.7,14,21.5,22.6,31.1
				C587.8,965.1,589.8,971.4,610.5,977c35.4,9.5,78.1-0.1,46.7-81.4C652.2,882.5,520.3,743,481.4,739.6z"/>
			<path class="st4" d="M591.8,1023.2c-8.3-4.8-24.6-26.1-43.8-54.2l36.1-12.7C595.9,998.2,600.5,1028.2,591.8,1023.2z"/>
			<path class="st8" d="M449.9,741.9c22-10.6,43.7-7.9,61.3,20.6c23.7,38.4,55.5,132.2,72.9,193.7L542.7,975
				c-26.2-59.8-77.9-137.4-97.9-172.7C433.5,782.6,432.6,750.3,449.9,741.9z"/>
			<g>
				<path class="st4" d="M701.3,984l17.9,33.5c-26.8,1.8-48.3,2.1-57.4-1.7C652.7,1012.1,670.9,998.7,701.3,984z"/>
				<path class="st8" d="M913.3,946.2c33.5,0,50,17.2,50,29.3c0,20.6-12.7,42.7-44.4,42.7c-40.3,0-141.3-1.4-203.3,2.9l-14.2-37
					C747,962,864.3,946.2,913.3,946.2z"/>
				<path class="st7" d="M648.6,1011.2c1.2-0.8,10.4-14.4,16.5-16.8c3.5-1.4,8.2-3.6,12-1.8c4.2,2.1,4.4,8,7,11.5
					c1.9,2.7,4.5,4.9,7.4,6.3l5.9-7.9c20.7,9.6,4.3,33.7,25.1,43.6c5.5,2.6,11.6,4.4,16,8.7c2.3,2.2,3.9,5.1,4.1,8.2
					c0.4,4.9-2.4,7.9-5.9,9.2l-35.1-17C680.5,1045.1,662.3,1030,648.6,1011.2L648.6,1011.2z"/>
			</g>
			<path class="st7" d="M546.5,1024.9c-0.2-5.5,2.1-10.1,4.5-11.4c2.4-1.3,6.1-10.6,11-24.2c2.3-6.2,14.8-8,21.1,2.7
				c2,3.5,3.9,5.7,6.2,5.7c1.9-0.1,4.1-3.4,5.9-1.2c1.6,1.9,2.1,7.1,2.5,10.7c0.7,6.3,1.4,12.6,2,18.9c0.2,1.4,0.3,2.9,0.3,4.3
				h-52.4C547,1028.9,546.6,1027,546.5,1024.9z"/>
		</g>
		<g>
			<path class="st4" d="M850.8,801.4c1,9.6,1.6,19.8-2.8,28.4c-4.4,8.6-15.6,14.4-24,9.7c-4.8-2.6-7.5-7.7-10-12.6
				c-13.9-27.2-27.8-54.4-41.7-81.6c-11.4-22.4-23.2-46.2-21.7-71.4c0.7-11.6,4.3-23.2,11.3-32.5c6.1-8.1,19.5-21,28.6-11.5
				c9.1,9.4,15.4,25.9,21.2,37.6c13.3,27,23.6,55.4,30.6,84.7C846.2,768.4,849.1,784.8,850.8,801.4z"/>
			<path class="st5" d="M750.6,679.3c0.7-12.9,4.8-25.8,12.6-36.1c6.8-9,10.8-31.7,21-21.1c10.2,10.5,28,37.1,34.4,50.1
				c8.5,17.1,15.8,34.7,22,52.8l-66.6,32.3C761.6,732.7,749.1,706.7,750.6,679.3z"/>
			<path class="st4" d="M847,804.3c-6.8-8.2-18.4-11.1-29-9.9c-10.6,1.2-20.4,5.8-30,10.4c-17.6,8.4-35.2,16.8-52.8,25.2
				c-18.2,8.7-36.4,17.3-54.5,26c-2.8,1.4-5.9,3-6.9,6c-1,3.2,1.2,6.7,4.1,8.4c2.9,1.7,6.4,2,9.8,2.1c27.3,1.4,54.7-1.2,81.3-7.5
				c13.4-3.2,26.6-7.4,39.4-12.5c11-4.4,26.6-9.2,35.5-17.3C852.3,827.4,854.5,813.4,847,804.3z"/>
		</g>
		<path class="st5" d="M545.5,625c6.5-7.9,16.3-12.1,25.8-15.6c28.1-10.3,92.6-37.3,95-37.2c2.4,0,66.9,26.9,95,37.2
			c9.6,3.5,19.3,7.8,25.8,15.6c8.7,10.5,9.8,25.5,6.7,38.8c-3.1,13.2-9.9,25.2-15.8,37.5c-7.4,15.3-13.5,31.1-18.3,47.4
			c-8.7,29.4-13,60-12.9,90.6c0,9.4,5,25.3,2.1,34.1c-3.6,11.1-22.8,13.6-32.5,14.9c-16.6,2.1-33.4,2.8-50.1,2.1
			c-16.7,0.7-33.5,0-50.1-2.1c-9.7-1.2-28.9-3.8-32.5-14.9c-2.9-8.9,2.1-24.7,2.1-34.1c0.1-30.6-4.2-61.3-12.9-90.6
			c-4.8-16.3-10.9-32.1-18.3-47.4c-5.9-12.2-12.7-24.2-15.8-37.5C535.7,650.6,536.8,635.5,545.5,625z"/>
		<g>
			<path class="st4" d="M645.1,568.9c2.6-8.4,4-24.2,9.2-29.8c3.1-3.4,19.5-3.4,22.6,0c5.2,5.6,6.6,21.4,9.2,29.8
				c2.9,9.4,5.5,20.8,2.4,30.1c-2.1,6.5-6.7,10.5-11.3,11.8c-3.8,1.1-19.5,1.1-23.3,0c-4.6-1.3-9.1-5.2-11.3-11.8
				C639.6,589.7,642.1,578.3,645.1,568.9z"/>
			<path class="st9" d="M631,497.9c5.3-15.3,63.9-15.3,69.2,0c4.2,12.2,4.8,25.9,2.4,38.8c-2.2,12.1-7.1,23.1-14,32.2
				c-4.7,6.2-41.3,6.2-46,0c-6.9-9.1-11.8-20.1-14-32.2C626.2,523.8,626.8,510.1,631,497.9z"/>
		</g>
		<path class="st10" d="M579,876.8h177.9c8.3,0,15.3-6.4,16-14.7l9.2-110c0.8-9.3-6.6-17.3-16-17.3H569.8c-9.4,0-16.7,8-16,17.3
			l9.2,110C563.7,870.5,570.7,876.8,579,876.8z"/>
		<path class="st11" d="M781.7,756.9c-1.7-7-8-12.2-15.6-12.2H569.8c-7.6,0-13.9,5.3-15.6,12.2l-0.4-4.7c-0.8-9.3,6.6-17.3,16-17.3
			h196.4c9.4,0,16.7,8,16,17.3L781.7,756.9z"/>
	</g>
	<path class="st9" d="M676.7,577.6h-21.1c-11.4,0-20.7-9.3-20.7-20.7v-40.7c0-11.4,9.3-20.7,20.7-20.7h21.1
		c11.4,0,20.7,9.3,20.7,20.7v40.7C697.4,568.4,688.1,577.6,676.7,577.6z"/>
	<path class="st7" d="M652.1,463.7c5.5,1.3,11.1-0.9,16.3-3s10.7-4.3,16.3-3.5c5.5,0.8,10.9,6,10.2,11.9c7.5-2.9,16.5-0.5,21.8,5.9
		c5.2,6.4,6.3,16.3,2.6,23.8c-2.3,4.5-6,8.2-7.7,13c-1.9,5.5,0.3,18.8-6.3,21.3c-5.1,2-7.9-38.4-22.1-39.4
		c-7.6,8.1-20.1,10.1-29.6,4.9c-3.6-2-7.3-5-11.1-3.7c-2.6,0.9-5.7,2.1-7.3,4.4c-4,5.5-2.8,30.5-8.3,34.6
		c-2.9-8.8-4.1-18.3-3.4-27.6c-2.5,0.1-5-0.3-7.3-1.3C609.3,502.1,609.5,453.5,652.1,463.7z"/>
	<path class="st9" d="M709.2,535.7c1.4-2.6,2.6-5.6,2.2-8.6c-0.4-3-2.9-5.8-5.7-5.5c-1.7,0.2-3.2,1.6-4.1,3.2
		c-0.9,1.6-1.3,3.5-1.7,5.3c-0.7,3.2-1.4,6.3-2.1,9.5c-0.6,2.7-0.9,6,1.2,7.6C702.9,549.9,707.7,538.5,709.2,535.7z"/>
	<path class="st9" d="M622.5,535.7c-1.4-2.6-2.6-5.6-2.2-8.6c0.4-3,2.9-5.8,5.7-5.5c1.7,0.2,3.2,1.6,4.1,3.2
		c0.9,1.6,1.3,3.5,1.7,5.3c0.7,3.2,1.4,6.3,2.1,9.5c0.6,2.7,0.9,6-1.2,7.6C628.8,549.9,624,538.5,622.5,535.7z"/>
</g>
</svg>
