<?xml version="1.0" encoding="utf-8"?>
<!-- Generator: Adobe Illustrator 27.5.0, SVG Export Plug-In . SVG Version: 6.00 Build 0)  -->
<svg version="1.1" id="レイヤー_1" xmlns="http://www.w3.org/2000/svg" xmlns:xlink="http://www.w3.org/1999/xlink" x="0px"
	 y="0px" viewBox="0 0 481.173 66.377" enable-background="new 0 0 481.173 66.377" xml:space="preserve">
<g>
	<path d="M37.734,47.578c-3.76,3.44-8.568,5.161-14.424,5.161c-7.246,0-12.943-2.324-17.089-6.973C2.073,41.096,0,34.692,0,26.558
		c0-8.796,2.358-15.574,7.075-20.337C11.176,2.073,16.394,0,22.729,0c8.477,0,14.674,2.78,18.594,8.34
		c2.164,3.122,3.326,6.255,3.486,9.399H34.282c-0.684-2.415-1.562-4.238-2.632-5.469c-1.914-2.188-4.751-3.281-8.511-3.281
		c-3.828,0-6.848,1.544-9.058,4.631c-2.211,3.088-3.315,7.457-3.315,13.108s1.167,9.884,3.503,12.697
		c2.336,2.814,5.304,4.222,8.904,4.222c3.691,0,6.505-1.208,8.442-3.623c1.07-1.299,1.959-3.247,2.666-5.845h10.425
		C43.794,39.671,41.47,44.138,37.734,47.578z"/>
	<path d="M84.422,18.799c3.145,3.942,4.717,8.602,4.717,13.979c0,5.469-1.572,10.146-4.717,14.03
		c-3.145,3.886-7.919,5.828-14.321,5.828c-6.403,0-11.177-1.942-14.321-5.828c-3.145-3.885-4.717-8.562-4.717-14.03
		c0-5.378,1.572-10.037,4.717-13.979s7.918-5.913,14.321-5.913C76.503,12.886,81.278,14.856,84.422,18.799z M70.067,21.123
		c-2.849,0-5.041,1.008-6.58,3.024c-1.537,2.017-2.307,4.894-2.307,8.631s0.77,6.619,2.307,8.647
		c1.539,2.028,3.731,3.042,6.58,3.042c2.848,0,5.035-1.014,6.562-3.042c1.526-2.028,2.29-4.91,2.29-8.647s-0.764-6.614-2.29-8.631
		C75.102,22.131,72.915,21.123,70.067,21.123z"/>
	<path d="M131.417,1.025v50.312h-9.468v-5.161c-1.391,2.21-2.974,3.816-4.751,4.819c-1.777,1.002-3.988,1.504-6.631,1.504
		c-4.353,0-8.015-1.761-10.989-5.281c-2.973-3.521-4.46-8.037-4.46-13.552c0-6.357,1.464-11.359,4.392-15.005
		s6.842-5.469,11.741-5.469c2.256,0,4.261,0.495,6.016,1.486c1.754,0.991,3.179,2.364,4.272,4.119V1.025H131.417z M105.167,32.949
		c0,3.44,0.684,6.187,2.051,8.237c1.344,2.073,3.395,3.11,6.152,3.11c2.757,0,4.854-1.025,6.289-3.076s2.153-4.705,2.153-7.964
		c0-4.558-1.151-7.815-3.452-9.775c-1.413-1.185-3.054-1.777-4.922-1.777c-2.849,0-4.938,1.076-6.272,3.229
		C105.834,27.087,105.167,29.759,105.167,32.949z"/>
	<path d="M174.959,40.4c-0.251,2.21-1.401,4.455-3.452,6.733c-3.19,3.623-7.656,5.435-13.398,5.435c-4.74,0-8.921-1.526-12.544-4.58
		s-5.435-8.021-5.435-14.902c0-6.448,1.635-11.394,4.905-14.834c3.269-3.44,7.513-5.161,12.731-5.161
		c3.099,0,5.89,0.581,8.374,1.743c2.483,1.162,4.534,2.996,6.152,5.503c1.458,2.21,2.403,4.773,2.837,7.69
		c0.25,1.709,0.353,4.17,0.308,7.383H149.94c0.137,3.737,1.31,6.357,3.521,7.861c1.344,0.935,2.962,1.401,4.854,1.401
		c2.005,0,3.634-0.569,4.888-1.709c0.684-0.615,1.287-1.47,1.812-2.563H174.959z M165.321,28.984
		c-0.16-2.575-0.939-4.529-2.342-5.862c-1.4-1.333-3.139-1.999-5.212-1.999c-2.256,0-4.005,0.706-5.247,2.119
		s-2.022,3.327-2.341,5.742H165.321z"/>
	<path d="M183.845,14.253h9.741v41.084c0,3.76-0.741,6.539-2.222,8.34c-1.481,1.8-4.387,2.7-8.716,2.7
		c-0.297,0-0.735-0.012-1.315-0.034c-0.582-0.023-1.306-0.046-2.171-0.068v-7.793c0.547,0.045,0.934,0.073,1.162,0.085
		c0.228,0.012,0.433,0.018,0.615,0.018c0.957,0,1.68-0.234,2.171-0.701c0.489-0.467,0.734-1.373,0.734-2.717V14.253z M183.845,0.649
		h9.741v8.989h-9.741V0.649z"/>
	<path d="M226.741,46.074c-0.092,0.114-0.319,0.456-0.684,1.025c-0.365,0.569-0.798,1.071-1.299,1.504
		c-1.527,1.367-3.003,2.302-4.426,2.803c-1.425,0.501-3.094,0.752-5.008,0.752c-5.515,0-9.229-1.982-11.143-5.947
		c-1.071-2.188-1.606-5.412-1.606-9.673V14.082h9.98v22.456c0,2.119,0.25,3.714,0.752,4.785c0.889,1.892,2.632,2.837,5.229,2.837
		c3.326,0,5.605-1.345,6.836-4.033c0.638-1.458,0.957-3.384,0.957-5.776V14.082h9.878v37.256h-9.468V46.074z"/>
	<path d="M266.526,24.336c-0.82-1.8-2.427-2.7-4.819-2.7c-2.78,0-4.648,0.9-5.605,2.7c-0.524,1.025-0.786,2.552-0.786,4.58v22.422
		h-9.878V14.15h9.468v5.435c1.207-1.937,2.347-3.315,3.418-4.136c1.891-1.458,4.341-2.188,7.349-2.188
		c2.848,0,5.149,0.627,6.904,1.88c1.412,1.162,2.483,2.654,3.213,4.478c1.275-2.188,2.859-3.794,4.751-4.819
		c2.005-1.025,4.238-1.538,6.699-1.538c1.641,0,3.258,0.319,4.854,0.957c1.595,0.638,3.042,1.755,4.341,3.35
		c1.048,1.299,1.754,2.894,2.119,4.785c0.228,1.253,0.342,3.088,0.342,5.503l-0.068,23.481h-9.98V27.617
		c0-1.413-0.229-2.575-0.684-3.486c-0.866-1.731-2.461-2.598-4.785-2.598c-2.689,0-4.546,1.116-5.571,3.35
		c-0.524,1.185-0.786,2.609-0.786,4.272v22.183h-9.81V29.155C267.209,26.945,266.981,25.339,266.526,24.336z"/>
	<path d="M339.055,18.081c3.008,3.213,4.512,7.93,4.512,14.15c0,6.562-1.476,11.564-4.426,15.005
		c-2.952,3.44-6.751,5.161-11.399,5.161c-2.963,0-5.424-0.741-7.383-2.222c-1.071-0.82-2.119-2.017-3.145-3.589v19.414h-9.639
		V14.082h9.331v5.503c1.048-1.618,2.164-2.894,3.35-3.828c2.164-1.663,4.739-2.495,7.725-2.495
		C332.333,13.262,336.024,14.868,339.055,18.081z M333.518,32.71c0-2.871-0.655-5.412-1.965-7.622
		c-1.312-2.21-3.436-3.315-6.375-3.315c-3.532,0-5.959,1.675-7.28,5.024c-0.684,1.777-1.025,4.033-1.025,6.768
		c0,4.329,1.15,7.371,3.452,9.126c1.367,1.025,2.984,1.538,4.854,1.538c2.711,0,4.779-1.048,6.203-3.145
		S333.518,36.196,333.518,32.71z"/>
	<path d="M393.639,33.223h-10.698v18.115h-10.459V0.957h21.943c5.059,0,9.092,1.299,12.1,3.896s4.512,6.619,4.512,12.065
		c0,5.947-1.504,10.151-4.512,12.612S399.221,33.223,393.639,33.223z M398.561,22.729c1.367-1.208,2.051-3.122,2.051-5.742
		s-0.689-4.489-2.068-5.605s-3.31-1.675-5.793-1.675h-9.81v14.834h9.81C395.234,24.541,397.17,23.938,398.561,22.729z"/>
	<path d="M435.476,23.071c-3.92,0-6.552,1.276-7.896,3.828c-0.752,1.436-1.128,3.646-1.128,6.631v17.808h-9.81V14.082h9.297v6.494
		c1.504-2.483,2.813-4.182,3.931-5.093c1.822-1.526,4.192-2.29,7.109-2.29c0.182,0,0.336,0.006,0.462,0.017
		c0.124,0.012,0.403,0.029,0.837,0.052v9.98c-0.615-0.068-1.162-0.114-1.641-0.137S435.772,23.071,435.476,23.071z"/>
	<path d="M476.457,18.799c3.145,3.942,4.717,8.602,4.717,13.979c0,5.469-1.572,10.146-4.717,14.03
		c-3.145,3.886-7.919,5.828-14.321,5.828c-6.403,0-11.177-1.942-14.321-5.828c-3.145-3.885-4.717-8.562-4.717-14.03
		c0-5.378,1.572-10.037,4.717-13.979s7.918-5.913,14.321-5.913C468.538,12.886,473.312,14.856,476.457,18.799z M462.101,21.123
		c-2.849,0-5.041,1.008-6.58,3.024c-1.537,2.017-2.307,4.894-2.307,8.631s0.77,6.619,2.307,8.647
		c1.539,2.028,3.731,3.042,6.58,3.042c2.848,0,5.035-1.014,6.562-3.042c1.526-2.028,2.29-4.91,2.29-8.647s-0.764-6.614-2.29-8.631
		C467.136,22.131,464.949,21.123,462.101,21.123z"/>
</g>
</svg>
